<svg xmlns="http://www.w3.org/2000/svg" viewBox="0 0 596.12 391.13"><g id="Ebene_2" data-name="Ebene 2"><g id="Ebene_1-2" data-name="Ebene 1"><path d="M584.08,366.11c11.43-2.37,6-44.61,6-67,0-38,17-122-6-213.38-6.7-26.6-49.87-69.57-61.81-64.86-1.2.46-2.77.36-4.88.61L513.41,0c-4,.49-7.23,1.16-10.34,1.22a77.84,77.84,0,0,0-29.49,6c-11.56,5-22.14,6-33.16,1.54-9.48-3.82-19.52-2.93-29.05,3.75-6.24,4.39-14.05,6.8-21.94,9.35-13.7,4.44-21.06,1.94-27.75-3.1-7.5-5.66-15.94-6.56-26.8-5-8.53,1.23-17.18,1.42-25.77,2-3.93.27-8-.22-11.8.62-13.51,3-27,3-40.55,4.46-6,.63-12.09,2.1-18.12,3.31-2.47.51-4.84,1.65-7.29,2-8.49,1.16-17,2.29-25.44,3.08-9.52.9-19.43,2.5-27.92-.71-3.48-1.32-6.59-.9-10.24-.22q-48.27,9-96.58,17.91L29.38,53.92c3.71,2.7,2.6,5.42.51,8.47-2.3,3.35-4.82,6.87-5.67,10.39-1.22,5-4.44,9-8.79,13C9.09,91.46,3.25,97.05,1.16,104.49c-3.06,10.88.91,20.79.69,31.23v.13a31.48,31.48,0,0,0,.55,8.31c1.7,6.72,4.24,13.28,5.65,20,1.52,7.24,1.67,14.73,3.24,22,1.7,7.84.91,15.24-5.94,22.68-3.72,4-4.71,8.63-2.19,12.75q7.85,12.87,16.27,25.5a37.83,37.83,0,0,0,6.77,7.75C31,259,35.3,264,41.68,266.55,57.91,273,75.2,278.23,92,284a23.29,23.29,0,0,1,5.68,2.35q14.4,10.24,28.54,20.74a10.28,10.28,0,0,1,3.47,3.92c4.09,9.34,7.6,18.88,12.09,28.09l.06.11c2.18,4.43,4.45,9.06,10.53,11.7,3.69,1.59,4.37,4.49,3.75,7.71-.59,3,.77,5.25,3.39,7.52,5.49,4.76,14.92,7.21,15.52,14.95,2-.38,3.65-.58,5.23-1,10-2.54,19.83-5.35,29.84-7.6,6.39-1.44,13-2,19.51-3.08,5.38-.9,14.29,1.42,16.67,4.7,3.92,5.4,11.48,6.41,19.22,6.79,5.72.3,11.89-.84,16.74,1.93l-6.78,8.29a14.08,14.08,0,0,0,3.07-.08c4.36-1.47,8.49-4.41,13.28-1.84a4.78,4.78,0,0,0,2.29-.88c2-1.42,4.27-2.78,5.74-4.43,5.49-6.17,15-6.65,22.55-9.78.8-.34,2.61.61,3.81,1.13,4.75,2.08,8.46,1.14,11.22-3.87,4.14,1.48,8.47,2.53,11.94,4.39,4.24,2.27,9.42,1.56,11.4-2.54s5.47-4.92,10.56-4.62c4.34.26,9.12.7,13.24-.36,6.12-1.58,13.21-1.15,15.47,3.15s5.85,7.08,11.75,8.44c3.92.91,8.25,1.24,11.85,2.49,8.22,2.85,14.71-.6,21.69-4,2.42-1.18,6.6-2.14,8.64-1.46l.16.05c5.55,1.86,6,2,9.9-2.77,3.41,1.3,7.18,2.26,10.1,3.95,3.65,2.11,7.58,2.19,12.25,1.42a53.51,53.51,0,0,1,9.67-.67c13.88.3,27.86.29,41.55,1.25C560,381.64,561.56,370.77,584.08,366.11Z"/></g></g></svg>