<svg xmlns="http://www.w3.org/2000/svg" viewBox="0 0 1200.06 23"><defs><style>.cls-1{fill:none;stroke:#000;stroke-miterlimit:10;}</style></defs><g id="Ebene_2" data-name="Ebene 2"><g id="Ebene_1-2" data-name="Ebene 1"><path class="cls-1" d="M1200,21.75c-5.34.26-11.88.47-18.1.52-17,.13-34.18.19-51.31.23-5.12,0-10.36-.12-15.44-.22-25.32-.49-49.64-1.16-73.32-2.07-27.71-1.06-58-1.61-88.58-1.93-35-.36-70.12-.61-105-1-17.87-.21-35.27-.66-52.89-1-8.68-.16-17.32-.34-26-.49-23.82-.41-46.38-1.23-71-1.37-1.22,0-2.6-.06-3.56-.12-10.7-.7-23.86-.93-36.72-1.23-3-.07-6-.3-7.82-.51-2.62-.31-3.76-.69-6.22-1q-10.92-1.41-22.46-2.79c-2.76-.33-6.94-.58-9.54-.92-7.76-1-19.15-1.6-31.79-2.16-8.46-.38-14.5-1.08-22.32-1.57-5.42-.34-11.66-.64-18.14-.81-38.32-1-78.43-1.4-117.87-2-11.3-.18-22.26-.5-33.5-.71-4-.07-8.3,0-12.48,0-14.5,0-29.05,0-43.49.09-7.38,0-14.8.21-21.86.4-13.68.36-26.8.89-40.74,1.15-22.18.41-41.65,1.26-61.65,2.05-4.08.16-8.94.28-13.42.28q-70,0-139.93-.13c-15.32,0-29.64-.26-40.2-1.28C10.66,2.7,5.32,2.4,0,2"/></g></g></svg>