<svg xmlns="http://www.w3.org/2000/svg" viewBox="0 0 443 55"><defs><style>.cls-1{fill:none;stroke:#000;}</style></defs><g id="Ebene_2" data-name="Ebene 2"><g id="Ebene_1-2" data-name="Ebene 1"><path class="cls-1" d="M411.75.52h0c8.1.12,15.23,1.68,20.58,5a20.72,20.72,0,0,1,9.89,15.6h0c1.1,7.89-1.09,14.42-5.63,19.4s-11.51,8.46-20,10.13a159.59,159.59,0,0,1-43.22,1.2h0a862.33,862.33,0,0,0-139.64,1.52c-28.42,2.42-56.8.49-85.2-1.44-7.93-.54-15.86-1.08-23.8-1.52-7.66-.44-15.32-1.08-23-1.72C81.86,47,61.93,45.37,41.8,47.19a69.63,69.63,0,0,1-21.41-1.74h0C15.43,44.27,10.6,42.61,7,40A14.34,14.34,0,0,1,.51,28.83,11.85,11.85,0,0,1,2,22.21a12.68,12.68,0,0,1,4.39-4.28c3.15-2,7.15-3.18,11.12-4.39l2-.61,8.88-1.27C51.79,8.28,74.82,5,98.11,7.33c75,7.67,149.61,2.9,224.17-1.87C342,4.2,361.61,3,381.27,1.92c3-.16,6-.36,9-.56C397.47.88,404.61.4,411.75.52Z"/></g></g></svg>