<svg xmlns="http://www.w3.org/2000/svg" preserveAspectRatio="none" viewBox="0 0 55.99 63">
    <defs>
        <style>
            .cls-1 {
                fill: none;
                stroke: #000;
            }
        </style>
    </defs>
    <g id="Ebene_2" data-name="Ebene 2">
        <g id="Ebene_1-2" data-name="Ebene 1">
            <path vector-effect="non-scaling-stroke" class="cls-1" d="M5.46,36.31c3.44,1.91,6.82,3.91,10.18,5.91,7.86,4.66,15.68,9.3,24.25,12.66A23.88,23.88,0,0,1,45,57.79L46.59,59c1,.75,2,1.5,3.08,2.18a7.85,7.85,0,0,0,2.67,1.29,1.92,1.92,0,0,0,1.14-.11,2.82,2.82,0,0,0,1.17-1,3.54,3.54,0,0,0,.75-3,4.36,4.36,0,0,0-1.86-2.43h0a87.36,87.36,0,0,0-7.7-4.48L43,49.89h0q-15.45-8.6-30.92-17.15h0a2.41,2.41,0,0,1-.56-.64l-.1-.14c-.14-.22-.31-.47-.54-.78l-.32-.42.43-.29A206.76,206.76,0,0,1,32.78,17.16h0c4.38-2.27,8.63-4.78,12.9-7.29C47.33,8.91,49,7.94,50.62,7h0a6.63,6.63,0,0,0,2.29-1.92,2.47,2.47,0,0,0,.14-2.56h0A3,3,0,0,0,50.88.57a5.33,5.33,0,0,0-3.18.55c-.58.26-1.2.5-1.81.74l-1.21.48A12.15,12.15,0,0,0,42,3.81,152.19,152.19,0,0,1,23.55,15.63l-1.64.94A192.17,192.17,0,0,0,5,27,23.33,23.33,0,0,0,1.5,29.88a3,3,0,0,0-1,2,2.88,2.88,0,0,0,1.18,1.9A21.3,21.3,0,0,0,5.46,36.31Z" />
        </g>
    </g>
</svg>