<svg xmlns="http://www.w3.org/2000/svg" viewBox="0 0 52.02 29.12"><defs><style>.cls-1{fill:none;stroke:#000;}</style></defs><g id="Ebene_2" data-name="Ebene 2"><g id="Ebene_1-2" data-name="Ebene 1"><path class="cls-1" d="M46.22,15.72l.49-.32L46.33,15a5.44,5.44,0,0,0-3.63-1.8l-.14,0A12,12,0,0,1,36,9.68h0A46.07,46.07,0,0,0,28.29,4L27,3.13l-.55-.33-.27-.16a3.64,3.64,0,0,1-.66-.48,1.17,1.17,0,0,1-.35-.51,1.37,1.37,0,0,1,0-.76h0a.42.42,0,0,1,.19-.28A1,1,0,0,1,25.88.5,4.78,4.78,0,0,1,28,1.24h0a45.87,45.87,0,0,1,8.76,6.42,10.21,10.21,0,0,0,5.34,2.77A33.89,33.89,0,0,1,50,12.67a4.87,4.87,0,0,1,1.17.72,1.13,1.13,0,0,1,.4.58c0,.24-.08.67-1,1.26-1.53,1-3,2.05-4.5,3.12-.94.68-1.87,1.36-2.81,2a27.06,27.06,0,0,1-7.82,4h0a53.13,53.13,0,0,0-6.08,2.31c-1,.42-2,.83-2.92,1.21h0a12,12,0,0,1-2.21.66h0a.71.71,0,0,1-.5,0l-.21.46.21-.46a.68.68,0,0,1-.36-.35h0c-.15-.32-.05-.6.3-1.07h0a3.43,3.43,0,0,1,1.4-1l.08,0h0c.84-.4,1.67-.82,2.5-1.23a54.45,54.45,0,0,1,10.33-4.3h0a15,15,0,0,0,4.31-2.06c.6-.39,1.2-.81,1.8-1.23l.18-.13C44.85,16.63,45.52,16.16,46.22,15.72Z"/><path class="cls-1" d="M7.49,17.17h0c6,.09,11.85-1,17.64-2,1.53-.27,3.05-.54,4.57-.79h0l.69-.13c.56-.1,1.1-.2,1.65-.25h0a2.46,2.46,0,0,1,1.39.23,1.56,1.56,0,0,1,.71,1.06,2,2,0,0,1-.21,1.49,2.27,2.27,0,0,1-1.2.9,10.35,10.35,0,0,1-3.22.44h0a59,59,0,0,0-11,1.28,37.82,37.82,0,0,1-6.66.56c-.61,0-1.22,0-1.84.05h0c-.57,0-1.15,0-1.75,0a24,24,0,0,0-4.84.36,4.43,4.43,0,0,1-1.54,0h0a2.37,2.37,0,0,1-.92-.31.94.94,0,0,1-.41-.67.89.89,0,0,1,0-.39.59.59,0,0,1,.18-.25,2.63,2.63,0,0,1,.72-.41l.11-.06.63-.17A18.46,18.46,0,0,1,7.49,17.17Z"/></g></g></svg>