<svg xmlns="http://www.w3.org/2000/svg" viewBox="0 0 285 113"><g id="Ebene_2" data-name="Ebene 2"><g id="Ebene_1-2" data-name="Ebene 1"><path d="M58.22,51.94a34.46,34.46,0,0,0,2.31-2.76,1.73,1.73,0,0,0,.39-1.47,4.13,4.13,0,0,0-.15-.5q-.9-2.3-1.82-4.6a3.66,3.66,0,0,1-.18-2.29c.2-.83.31-1.65.51-2.48a26,26,0,0,0,.45-5.23,8.53,8.53,0,0,0-.42-2.42,32.26,32.26,0,0,1-.79-4,6.38,6.38,0,0,0-1.31-3.31,47.76,47.76,0,0,1-2.68-4.08,10.74,10.74,0,0,1-.88-2,2,2,0,0,1,.15-1.48c.51-1.13,1.06-2.27,1.58-3.38a5.72,5.72,0,0,1,.69-.26,15.18,15.18,0,0,0,4-1.24,4.74,4.74,0,0,1,.83-.27c3.77-1.07,7.52-2.53,11.3-3.46a1.66,1.66,0,0,0,.21-.06,19.16,19.16,0,0,1,4.8-1.19c2.78-.52,5.56-.92,8.33-1.3a5.78,5.78,0,0,1,.81-.07c1.18.08,2.35.18,3.53.27a6.16,6.16,0,0,0,2.43-.15,6.32,6.32,0,0,1,1-.19,9.52,9.52,0,0,0,2.3-.67c1-.45,2.07-.81,3.1-1.26A15.52,15.52,0,0,1,104.3.92a16.94,16.94,0,0,1,2.58.09c1.35.15,2.77.14,4.15.21a6.47,6.47,0,0,0,2.26-.3,14.76,14.76,0,0,1,5.15-.73C119.67.28,121,.05,122.3,0a16,16,0,0,1,3.18.1,12.16,12.16,0,0,0,1.94.18,11.22,11.22,0,0,1,5.64,1.93c1.33.76,2.32,1.84,3.57,2.68.33.22.67.44,1,.69,1,.88,2.52.83,4.08.54.76-.14,1.54-.4,2.31-.6,1.46-.39,2.93-.73,4.4-1.18a20.81,20.81,0,0,1,5.17-.68c.33,0,.66,0,1,0a11.39,11.39,0,0,1,3.83.47,19.23,19.23,0,0,0,3.38.58,11.59,11.59,0,0,0,2.62-.09l3.11-.44a32.43,32.43,0,0,0,3.33-.53,10.66,10.66,0,0,1,3.09-.32,2.94,2.94,0,0,1,1.42.39,16.86,16.86,0,0,1,1.51,1.12c1,.85,2,1.72,2.94,2.58.17.15.32.32.5.46a5,5,0,0,0,4.11,1.28,6.77,6.77,0,0,0,3.29-.61c1.8-.69,3.61-1.3,5.41-2A8.4,8.4,0,0,1,195.82,6c1.28,0,2.59-.2,3.9-.31.2,0,.41,0,.62-.07A5.3,5.3,0,0,1,205,7.06a7.43,7.43,0,0,1,2.18,3.56c.08.34.22.65.32,1a4.55,4.55,0,0,0,2.89,3,11.65,11.65,0,0,0,4.45.86,11.43,11.43,0,0,1,3.29.32,2.31,2.31,0,0,0,.75.12,7.92,7.92,0,0,1,3.61.88,7.79,7.79,0,0,0,1.89.64,9,9,0,0,1,1.42.42,8.53,8.53,0,0,0,3.07.35c1.22-.05,2.41,0,3.6.06a4,4,0,0,1,1.12.19c3.29,1,6.93,1.37,10.42,2a10.29,10.29,0,0,0,3.41,0,20.85,20.85,0,0,1,4.12-.41,21.42,21.42,0,0,1,4.58.6c1.49.4,3.08.63,4.64.92,1.12.21,2.28.35,3.39.58a5.62,5.62,0,0,1,1.56.52,10.36,10.36,0,0,1,3.06,2.19,6.5,6.5,0,0,0,2.73,2.05,1.59,1.59,0,0,1,.32.16,10.87,10.87,0,0,1,3.56,3.8,21.45,21.45,0,0,1,1,2.52,4.59,4.59,0,0,0,1.39,2.07,45.73,45.73,0,0,0,4.65,3.76,6.68,6.68,0,0,1,2.17,2.56,3,3,0,0,1,.11,2.82c-.22.49-.27,1-.49,1.51a12.26,12.26,0,0,1-.79,1.28,30.65,30.65,0,0,1-4.73,5.85,3.64,3.64,0,0,1-1.3.89,24.83,24.83,0,0,0-4.77,2.59c-1.33.87-2.73,1.62-4.11,2.41a48.69,48.69,0,0,1-6.52,3,25.62,25.62,0,0,1-6.89,1.8c-.48.05-1,.13-1.45.22-2.92.5-5.85,1.06-8.75,1.41a36,36,0,0,0-4.81,1c-.91.25-1.83.46-2.73.77-1.46.5-2.91,1-4.36,1.61a6.52,6.52,0,0,0-1.16.72c-1.81,1.26-3.59,2.57-5.43,3.78-1.2.79-2.47,1.5-3.73,2.16a15.77,15.77,0,0,1-2,1,19.09,19.09,0,0,1-3.76.92c-1.59.22-3.18.46-4.78.7a6.12,6.12,0,0,0-1,.18,43.83,43.83,0,0,1-7.29,1.26l-.83.12a9.85,9.85,0,0,0-3.51,1.07,60.6,60.6,0,0,1-7.22,3c-1.32.48-2.64.91-4,1.31a11.31,11.31,0,0,1-2.09.4,55.18,55.18,0,0,1-7.11.31c-.73,0-1.45-.09-2.16-.15a4.23,4.23,0,0,0-2.26.43,11.82,11.82,0,0,1-1.24.49,12.55,12.55,0,0,0-3.58,1.88c-.89.7-1.9,1.26-2.81,1.94-2,1.52-4.12,2.87-6.27,4.18a8.88,8.88,0,0,0-1.28.93,23.55,23.55,0,0,1-3.68,2.68c-.2.12-.4.23-.58.36-2.36,1.69-4.93,3-7.39,4.48a22.53,22.53,0,0,1-3.87,1.79,33.06,33.06,0,0,1-4.8,1.47c-1.46.29-2.93.7-4.4,1.13a8.42,8.42,0,0,1-4.78.12,18.3,18.3,0,0,1-3.24-1.18c-1.37-.71-2.88-1.2-4.32-1.79a11.63,11.63,0,0,1-3.71-2.51,6.39,6.39,0,0,1-1.84-4.69,27.76,27.76,0,0,0-.57-4.78,14.45,14.45,0,0,1,0-6,17,17,0,0,0,.34-4.83c0-.3-.07-.59-.1-.89a2.13,2.13,0,0,0-.81-1.45l-2.24-1.85a8.39,8.39,0,0,1-2.83-4.72,6.08,6.08,0,0,1-.24-1.2,5,5,0,0,0-1.39-3,2,2,0,0,0-.83-.61c-.39-.15-.77-.32-1.15-.5a6.89,6.89,0,0,0-3.45-.34,2.68,2.68,0,0,0-.84.22l-3.86,1.63-6.5,6.39A17.46,17.46,0,0,1,90.66,77,7.5,7.5,0,0,0,89,78.74c-.52.71-1.1,1.39-1.63,2.09a41.52,41.52,0,0,0-2.72,4,28.39,28.39,0,0,1-4.13,5.42c-1.85,1.88-3.7,3.75-5.6,5.59a19.47,19.47,0,0,1-5,3.57,50,50,0,0,0-7.21,4.31,22.73,22.73,0,0,1-2.94,1.71A51.49,51.49,0,0,1,53.15,108a11,11,0,0,1-2.29.49,23.46,23.46,0,0,0-4.6,1.2c-1.52.53-3,1.08-4.58,1.57-1.12.36-2.24.68-3.36,1a10.24,10.24,0,0,1-2.67.28c-1.07,0-2.15,0-3.22,0a64.08,64.08,0,0,0-7.53.39,32.43,32.43,0,0,1-4,.09,2.74,2.74,0,0,1-.76-.11,15,15,0,0,1-3.62-1.54,28.09,28.09,0,0,1-4.79-3.61,11.66,11.66,0,0,0-1.56-1.08,46,46,0,0,1-4.73-3.92,18.75,18.75,0,0,1-1.53-1.79A14.71,14.71,0,0,0,2,98.76,6.05,6.05,0,0,1,.34,95.65,11.53,11.53,0,0,1,0,92.46a3.18,3.18,0,0,1,.07-.75c.37-1.46.54-2.92,1.06-4.39C1.4,86.56,1.7,85.8,2,85a6,6,0,0,1,.28-.57c.35-.69.34-1.43.88-2.08s1.12-1.21,1.64-1.84a34.23,34.23,0,0,1,2.62-2.78,17.28,17.28,0,0,0,1.37-1.48c1.79-2.18,3.65-4.32,5.63-6.39.41-.43.81-.88,1.17-1.34a10.6,10.6,0,0,1,2-1.88,38.24,38.24,0,0,1,13-6.58c3-.81,5.85-1.85,8.77-2.9,1.11-.39,2.23-.72,3.34-1.08.35-.11.71-.18,1-.31a36.09,36.09,0,0,1,8.14-1.87,22.09,22.09,0,0,0,4.59-1.26C57,52.45,57.61,52.19,58.22,51.94Z"/></g></g></svg>