<svg xmlns="http://www.w3.org/2000/svg" viewBox="0 0 257.44 146.71"><g id="Ebene_2" data-name="Ebene 2"><g id="Ebene_1-2" data-name="Ebene 1"><path d="M257.44,135.82a9.61,9.61,0,0,1-3.36.61c-3.46.23-6.92.52-10.38.74a30.16,30.16,0,0,1-9.56-1,16.42,16.42,0,0,0-6.51-.13c-2.26.3-4.52.62-6.78,1a16.5,16.5,0,0,1-4.55.09,69,69,0,0,0-17.22.55c-1.21.18-2.41.39-3.62.55-1.65.21-3.31.33-5,.58-3,.44-6,1-9,1.4a28.6,28.6,0,0,1-3.82.23,74.1,74.1,0,0,1-7.6,0c-3.11-.31-6.26-.33-9.4-.38a43.56,43.56,0,0,0-5,.21,23.79,23.79,0,0,0-3.43.64c-2.61.64-5.21,1.34-7.82,2a64.57,64.57,0,0,1-9.59,1.47c-2.68.25-5.35.61-8,.94-.38.05-.75.19-1.13.28a35.93,35.93,0,0,1-11.35,1.05,24.38,24.38,0,0,1-5.19-1.25,29.2,29.2,0,0,0-6.21-1.1,10.07,10.07,0,0,1-3.35-.65,11.65,11.65,0,0,0-5.15-.72q-8.71.3-17.42.83c-2.24.13-4.47.49-6.7.78a35.63,35.63,0,0,1-11.78-.75,28.49,28.49,0,0,1-5.77-2.27A50.45,50.45,0,0,0,43,138c-4.22-.87-8.47-1.58-12.69-2.41-1.87-.38-3.71-.86-5.54-1.35a44.56,44.56,0,0,0-6.06-1.12,49.11,49.11,0,0,1-6-1.12,6.45,6.45,0,0,1-2.09-1.19,7.26,7.26,0,0,0-2.85-1c-1.83-.42-3.7-.34-5.52-.67a.73.73,0,0,1-.43-.36c-.6-1.53-1.19-3.07-1.75-4.62a1.38,1.38,0,0,1,0-.78,86.88,86.88,0,0,1,4.14-10.94A8.29,8.29,0,0,1,6,109.91a20.59,20.59,0,0,1,6.46-4.46,23.48,23.48,0,0,0,2.77-1.71c1-.65,2.14-1.25,3.16-1.93.63-.42,1.16-1,1.74-1.44.77-.62,1.56-1.22,2.34-1.82a.84.84,0,0,1,.42-.16c2.19.12,4.23-.65,6.35-1,.13,0,.31-.09.39,0,.57.38,1,0,1.53-.15C35.08,96,38,93.29,41,90.79a22.13,22.13,0,0,0,4.11-5.16,80.3,80.3,0,0,1,5.64-7.47c.48-.56.87-1.19,1.31-1.78.68-.91,1.31-1.88,2.07-2.73a64.17,64.17,0,0,0,7.63-11.32c2.52-4.55,5-9.09,7.68-13.58a60.28,60.28,0,0,1,4.69-7.08c4-5.05,7.54-10.48,11.26-15.76a12.15,12.15,0,0,0,.72-1.19,38.42,38.42,0,0,1,5.65-7.8,1.45,1.45,0,0,1,.59-.44A4.1,4.1,0,0,0,94,15.41c1.59-1.42,3.25-2.76,4.8-4.23,1.91-1.8,3.77-3.67,5.61-5.56s3.42-3.69,5.19-5.59c-.13,0-.07,0-.06,0a1.46,1.46,0,0,0,1.65.71,8,8,0,0,1,4.5.83,6.14,6.14,0,0,0,1.57.27,1.59,1.59,0,0,1,.64.17,26.6,26.6,0,0,0,7,3.62,46.1,46.1,0,0,1,7.34,3.49,8.41,8.41,0,0,1,2.91,3.33A44.94,44.94,0,0,0,140,18.89a7.08,7.08,0,0,0,1.91,1.3c.3.18.65.27.94.45A8.17,8.17,0,0,0,148,22a1.05,1.05,0,0,1,.47,0,5.38,5.38,0,0,0,3.13,0,3.62,3.62,0,0,1,1.65.32,1.94,1.94,0,0,0,1.46,0,20.44,20.44,0,0,1,2.92-1,21.22,21.22,0,0,1,2.53-.18,8.47,8.47,0,0,1,3.71.38,1.11,1.11,0,0,1,.56.43c.58,1,1.17,2,1.67,3.07a4.43,4.43,0,0,1,.5,2.46c-.19,1.45-.29,2.9-.48,4.34a1.26,1.26,0,0,0,.45,1.28c.62.52,1.2,1.1,1.79,1.65,1.49,1.39,3.35,1.59,5.25,1.63a1.87,1.87,0,0,0,.73-.15,16.2,16.2,0,0,0,2.13-.94,6.84,6.84,0,0,1,4.28-.68,34.7,34.7,0,0,0,4,.46c1.7,0,3.42.37,5.13-.11a7.43,7.43,0,0,1,3.63-.06c.58.13,1.18.16,1.78.25a1,1,0,0,1,.38.1,9.08,9.08,0,0,1,3.47,3.35,15.82,15.82,0,0,1,1.17,2.59,24.71,24.71,0,0,0,1.81,4.15,3.87,3.87,0,0,1,.37,1.15q.84,5.05,1.19,10.17a1.81,1.81,0,0,1-.09.73q-1.05,2.91-2.13,5.79a3.18,3.18,0,0,1-.45.75c-1.22,1.63-2.43,3.27-3.7,4.86a15.3,15.3,0,0,1-1.62,1.49c-.53.48-1.07,1-1.57,1.46a8.12,8.12,0,0,1-2.55,2,7.32,7.32,0,0,0-1.4,1.12c-1.89,1.51-3.78,3-5.69,4.52a.82.82,0,0,0-.38.87c.17,1.19.3,2.39.45,3.58A1.49,1.49,0,0,0,186,85.13c1.51-.1,3-.27,4.51-.39.51,0,1,0,1.53,0a8.41,8.41,0,0,0,1.51-.06,3.41,3.41,0,0,1,3,1.08,3,3,0,0,0,1.52.78,14.76,14.76,0,0,1,3.94,1.37,15.24,15.24,0,0,0,6.08,1.84,16.18,16.18,0,0,1,3.48.45,1,1,0,0,1,.59.5,3.81,3.81,0,0,0,1.13,1.58,4.09,4.09,0,0,1,1.51,3.47A28.62,28.62,0,0,0,215,100a5.14,5.14,0,0,0,.66,1.65c.29.59.69,1.14.93,1.74.63,1.59,2.09,2,3.57,2a22.28,22.28,0,0,0,6.44-1.13c1.61-.5,3.17-1.15,4.78-1.64,2-.6,3.49-2,5.22-3.08a4.76,4.76,0,0,1,1-.36c.2-.07.41-.12.6-.2l2.56-1Q249.08,116.91,257.44,135.82Z"/></g></g></svg>