<svg xmlns="http://www.w3.org/2000/svg" viewBox="0 0 1200.23 86"><defs><style>.cls-1{fill:none;stroke:#000;stroke-miterlimit:10;}</style></defs><g id="Ebene_2" data-name="Ebene 2"><g id="Ebene_1-2" data-name="Ebene 1"><path class="cls-1" d="M1200.13,82.59a119.94,119.94,0,0,1-18.1,2c-17,.51-34.18.75-51.31.9-5.12,0-10.36-.47-15.44-.86-25.32-1.9-49.64-4.47-73.32-8-27.71-4.1-58-6.22-88.57-7.45-35-1.42-70.12-2.36-105-3.95-17.86-.8-35.26-2.57-52.88-3.89-8.68-.65-17.32-1.35-26-1.93-23.83-1.58-46.39-4.74-71.05-5.27a16.41,16.41,0,0,1-3.56-.47C684.17,51,671,50.11,658.15,48.94a26,26,0,0,1-7.82-2c-2.62-1.19-3.76-2.67-6.22-3.9q-10.93-5.44-22.47-10.79C618.88,31,614.7,30,612.1,28.75c-7.76-3.84-19.14-6.17-31.78-8.35-8.46-1.46-14.5-4.18-22.32-6.06a137.51,137.51,0,0,0-18.14-3.14C501.53,7.25,461.43,5.8,422,3.38c-11.3-.69-22.27-1.91-33.51-2.72-4-.29-8.3-.1-12.48-.08-14.5.08-29,0-43.48.33-7.38.16-14.8.83-21.86,1.56C297,3.87,283.86,5.9,269.91,6.9c-22.18,1.6-41.64,4.89-61.64,7.94a91.65,91.65,0,0,1-13.42,1.07q-70-.13-139.93-.49c-15.33-.07-29.65-1-40.21-4.95C10.75,9,5.41,7.86.13,6.42"/></g></g></svg>