<svg xmlns="http://www.w3.org/2000/svg" viewBox="0 0 1200 457"><defs><style>.cls-1{fill:#e5e5e5;}</style></defs><g id="Ebene_2" data-name="Ebene 2"><g id="Ebene_1-2" data-name="Ebene 1"><path class="cls-1" d="M1200,98.47a100.5,100.5,0,0,1-18.1,2.4c-17,.62-34.18.9-51.31,1.08a153.14,153.14,0,0,1-15.44-1c-25.32-2.28-49.64-5.37-73.32-9.58-27.71-4.92-58-7.46-88.57-8.94-35-1.69-70.13-2.83-105-4.73-17.86-1-35.26-3.08-52.88-4.67-8.68-.78-17.32-1.61-26-2.31-23.82-1.9-46.38-5.68-71-6.33a13.69,13.69,0,0,1-3.56-.56C684,60.56,670.88,59.51,658,58.1a22.65,22.65,0,0,1-7.83-2.36c-2.62-1.42-3.76-3.2-6.22-4.68q-10.92-6.54-22.46-12.94c-2.76-1.51-6.94-2.69-9.54-4.23-7.76-4.61-19.14-7.41-31.78-10-8.46-1.75-14.5-5-22.32-7.27a116.76,116.76,0,0,0-18.15-3.77C501.4,8.1,461.3,6.35,421.86,3.46c-11.31-.84-22.27-2.3-33.51-3.27-4-.34-8.3-.12-12.48-.1-14.5.1-29,0-43.48.4-7.38.19-14.8,1-21.86,1.87C296.85,4,283.72,6.48,269.78,7.68c-22.18,1.91-41.64,5.86-61.64,9.52a77.32,77.32,0,0,1-13.42,1.29q-70-.16-139.93-.59C39.46,17.82,25.14,16.68,14.58,12,10.62,10.18,5.28,8.83,0,7.1V419.82c5.21.9,9.81,1.76,14.8,2.55q29.61,4.69,59.47,9.33c2.21.34,5.19.59,8,.74q20.5,1.06,41.16,2c3.67.17,7.53.26,11.35.28q21.4.12,42.85.15c2.14,0,4.36-.05,6.46-.14,6.21-.28,12.54-.49,18.51-.88a135.08,135.08,0,0,1,19.74.25c12.78.93,26.22,1.59,39.3,2.4,3,.19,6.23.43,8.59.79,12.26,1.89,26.82,2.95,41.92,4,17.28,1.19,33.75,2.76,50.11,4.32l1.83.17c10.26,1,20.64,1.49,32.35,1.51q38.17.06,76.31.35c10.89.1,21.74.51,32.5.87q20.15.69,40.08,1.54c25.38,1.09,50.42,2.46,76.07,3.32,36.23,1.21,72.86,2.07,109.35,3.06,8.31.22,16.69.48,25.06.51,11.28.06,22.7,0,33.89-.17h.32c24.24-.48,48.54-1,72.5-1.72,20.61-.65,40.74-1.76,61.18-2.59,13.33-.54,26.76-1.14,40.32-1.34,18.53-.28,37.25-.13,55.84-.31,9.05-.08,18-.48,27-.74,1.43,0,2.88-.12,4.31-.11a395.2,395.2,0,0,0,67.31-5c9.83-1.63,20.29-3.4,25.67-5.82,4.64-2.1,13.28-3.77,23.08-5.34l.81-.13c12.64-2,25.58-4.1,31.89-7Z"/></g></g></svg>