<svg xmlns="http://www.w3.org/2000/svg" viewBox="0 0 231 113"><g id="Ebene_2" data-name="Ebene 2"><g id="Ebene_1-2" data-name="Ebene 1"><path d="M34.7,14.09a4.57,4.57,0,0,1,1-.47,65.53,65.53,0,0,0,10-2.72,17.71,17.71,0,0,1,9.68-.52,9.25,9.25,0,0,0,4-.05A88.58,88.58,0,0,0,71.64,6.94c4.86-1.83,9.71-3.69,14.58-5.49a18.19,18.19,0,0,1,12.41-.07c3.64,1.2,7.38,2.14,11.12,3a19.52,19.52,0,0,0,8,.25c2.08-.39,4.18-.72,6.26-1.08a7.36,7.36,0,0,1,2.26-.39c3.34.49,6.45-.66,9.66-1.17,4.56-.72,9.14-1.27,13.71-1.88A11.07,11.07,0,0,1,151.38,0c7.57.08,14.94,1.07,21.87,4.43,3.47,1.68,7.06,3.09,10.58,4.65a41,41,0,0,0,7.65,2.57c2.81.62,5.61,1.34,8.39,2.1a27.33,27.33,0,0,1,7.74,3.8,85.37,85.37,0,0,1,14,12c2.4,2.48,4.46,5.3,6.69,8a35.5,35.5,0,0,0,.79,3.93A10.1,10.1,0,0,1,229.4,46a18.07,18.07,0,0,0,.17,6.91c.68,2.85.18,5.77.19,8.65a12.42,12.42,0,0,0,.53,4.53,26,26,0,0,1,.35,2.86c1.11,4.52-.46,8.33-3,11.89-.45.63-1,1.18-1.41,1.83a10.69,10.69,0,0,1-8.29,5.55,20.5,20.5,0,0,0-6.51,2.29,43.81,43.81,0,0,1-11.54,3.58A59.48,59.48,0,0,1,189,95.36a13.18,13.18,0,0,0-2.86.36c-4.7,1-9.42,2-14.09,3.14a104.45,104.45,0,0,1-11.39,1.76c-1.53.21-3,.39-4.57.6a26.68,26.68,0,0,0-8.71,2.84c-5.3,2.73-10.79,5.08-16.19,7.62a13.37,13.37,0,0,1-5.58,1.29c-6.74.08-13.49.1-20.13-1.18a38.65,38.65,0,0,1-13.8-5.6,148.64,148.64,0,0,0-13-7.46A44.94,44.94,0,0,0,71,96.2a6.21,6.21,0,0,0-2.28-.12c-4.79.41-9.57.86-14.46,1.3-4.07-2-8.21-4-12.31-6.15a22.39,22.39,0,0,0-9.38-2.5c-4.6-.23-9.17-1-13.77-1.43-4.43-.44-8.66-1.76-12.92-2.93A7.25,7.25,0,0,1,.54,78.82a14,14,0,0,1-.3-6.28c.41-1.88.32-3.87.82-5.71C3.33,58.41,7.26,52.72,14.18,47c2.66-2.21,5.07-4.72,7.57-7.13,1.11-1.07,2.08-2.29,3.26-3.28a9.71,9.71,0,0,0,3.32-5.24c.59-2.44,1.29-4.85,1.89-7.29A25.37,25.37,0,0,1,34.7,14.09Z"/></g></g></svg>