<svg xmlns="http://www.w3.org/2000/svg" xmlns:xlink="http://www.w3.org/1999/xlink" viewBox="0 0 600 421.04"><defs><style>.cls-1{fill:none;}.cls-2{clip-path:url(#clip-path);}.cls-3{fill-rule:evenodd;}</style><clipPath id="clip-path" transform="translate(0.05 0.03)"><rect class="cls-1" width="600" height="421"/></clipPath></defs><g id="Ebene_2" data-name="Ebene 2"><g id="Ebene_1-2" data-name="Ebene 1"><g class="cls-2"><path class="cls-3" d="M599.85,58.43a1.3,1.3,0,0,0,0-.87C599.84,57.85,599.85,58.14,599.85,58.43Z" transform="translate(0.05 0.03)"/><path d="M564.19,421c11.67-.25,23.32-1,35.72-1.54q0-181.39-.06-361c-.39,1-2.24,1.29-4.71,1.06-3.45-.31-6.86-.73-10.3-1-12.38-1-24.65-3.61-37.25-1.15-1.25.23-2.78-.16-4.9-.3V35.18c-4.05-.25-7.32-.17-10.39-.69a77.82,77.82,0,0,0-30.08.49c-12.27,2.77-22.86,1.83-32.89-4.53C460.71,25,450.67,24,440.09,28.84,433.15,32,425,33,416.81,34c-14.28,1.87-21.06-1.93-26.72-8.11-6.34-6.92-14.48-9.35-25.44-9.79C356,15.8,347.5,14.41,339,13.42c-3.92-.45-7.87-1.68-11.72-1.54-13.84.51-27.14-1.93-40.69-3-6.06-.48-12.27-.14-18.41,0-2.52,0-5.06.73-7.54.62C252,9,243.51,8.61,235,7.85c-9.53-.86-19.56-1.09-27.32-5.8C204.52.12,201.38,0,197.66,0Q148.57,0,99.44,0H56.94c3.16,3.34,1.57,5.81-1,8.43-2.88,2.87-6,5.88-7.47,9.18-2.1,4.65-6,8.08-11,11.14-7.27,4.47-14,8.91-17.44,15.83-5,10.15-2.89,20.61-5,30.84l0,.13a31.21,31.21,0,0,0-1,8.27c.44,6.92,1.75,13.83,1.9,20.74.18,7.39-1,14.78-.82,22.18.25,8-1.88,15.14-10,21.21-4.39,3.3-6.21,7.63-4.48,12.15Q6,174.15,12,188.11A37.28,37.28,0,0,0,17.2,197c4,4.95,7.27,10.69,13.08,14.33,14.79,9.28,30.83,17.59,46.35,26.31A22.87,22.87,0,0,1,81.78,241q12.3,12.7,24.29,25.59a10.49,10.49,0,0,1,2.7,4.49c2.32,9.93,4,20,6.76,29.82l0,.12c1.33,4.76,2.73,9.72,8.23,13.42,3.34,2.24,3.47,5.22,2.27,8.27-1.12,2.86-.19,5.3,2,8,4.53,5.69,13.35,9.81,12.53,17.53,2.06,0,3.69.09,5.33,0,10.26-.68,20.47-1.64,30.72-2,6.54-.25,13.15.4,19.74.52,5.46.1,13.79,4,15.54,7.66,2.87,6,10.12,8.39,17.66,10.18,5.57,1.34,11.85,1.34,16.11,4.95l-8.18,6.91a14.7,14.7,0,0,0,3,.49c4.55-.66,9.15-2.79,13.4.6.24.21,1.72-.14,2.41-.45,2.23-1,4.7-1.94,6.45-3.3,6.52-5.07,15.93-3.81,24-5.51.84-.18,2.45,1.08,3.53,1.81,4.29,2.91,8.12,2.66,11.74-1.76,3.8,2.21,7.87,4,10.94,6.49,3.76,3,9,3.25,11.67-.42s6.28-3.85,11.23-2.62c4.22,1.05,8.84,2.35,13.08,2.06,6.3-.44,13.2,1.28,14.64,5.91s4.46,8,10,10.45c3.69,1.6,7.89,2.72,11.21,4.61,7.56,4.29,14.56,2.08,22,0,2.59-.72,6.88-.9,8.76.14l.14.08c5.13,2.84,5.58,3.09,10.24-.92,3.12,1.9,6.66,3.53,9.22,5.73,3.21,2.74,7.05,3.53,11.78,3.62a54.12,54.12,0,0,1,9.64,1.11c13.59,2.82,27.34,5.36,40.62,8.8A245.1,245.1,0,0,0,564.19,421Z" transform="translate(0.05 0.03)"/></g></g></g></svg>