<svg xmlns="http://www.w3.org/2000/svg" viewBox="0 0 199.94 30.01"><defs><style>.cls-1{fill:none;stroke:#000;stroke-miterlimit:10;}</style></defs><g id="Ebene_2" data-name="Ebene 2"><g id="Ebene_1-2" data-name="Ebene 1"><path class="cls-1" d="M199.07,4.85l-.27-.6,0,0a5.91,5.91,0,0,0-1.49-1.08,7.88,7.88,0,0,0-.93-.4h0A12.41,12.41,0,0,0,194,2.1h0c-.5-.09-1-.17-1.52-.22h0c-.75-.09-1.51-.14-2.28-.18h0l-1.61,0h-2c-1.14,0-2.28,0-3.43.06h0a68.9,68.9,0,0,0-7.22.56q-3.39.47-6.62,1.22h0l-5.75,1.2h0c-7.81,1.65-15.5,3.24-23.32,4.63h0c-3.9.74-7.83,1.41-11.81,2h0q-6.16.93-12.13,2.25-3,.68-5.93,1.54h0a22.33,22.33,0,0,0-5.44,2.31l-.16.12-.37.27h0l-.38.33h0a4.13,4.13,0,0,1-.91.57h0a13.37,13.37,0,0,1-2.48.83c-.92.24-1.88.44-2.86.62h0l-2.84.54-.1,0-.11,0-1.2-.3c-.51-.13-1-.26-1.57-.39h0l-3-.67h0l-5.82-1.3h0L82.87,18c-3.78-.83-7.59-1.66-11.12-2.61a41.11,41.11,0,0,1-4.92-1.63h0l-.61-.28-1.8-.81c-.85-.37-1.8-.75-2.71-1.08h0Q56.26,9.61,50.46,8h0c-3-.88-6.09-1.68-9.12-2.48l-2.26-.6h0L33.44,3.39h0l-2.79-.75h0l-.12,0c-.88-.23-2-.54-3.15-.77a60.2,60.2,0,0,0-7.09-1h0C17.94.63,15.57.51,13.2.5,12,.5,10.75.5,9.5.59h0Q8.44.65,7.42.75L6.81.82l-.69.1-.8.16-.53.12-.25.06-.35.1a8.42,8.42,0,0,0-1.69.71,5.2,5.2,0,0,0-.61.37A4.45,4.45,0,0,0,1.28,3,2.49,2.49,0,0,0,.51,4.42a1.89,1.89,0,0,0,.08.78A2.33,2.33,0,0,0,1,5.9H1a4.12,4.12,0,0,0,.94.92h0c.13.1.29.2.46.31l.17.09h0l.25.15a18.77,18.77,0,0,0,1.91.91c1.07.45,2.19.86,3.36,1.22h0c2.45.77,4.82,1.47,7.13,2.15,1.4.42,2.78.82,4.15,1.24q5.15,1.41,9.93,3.19h0l.24.1.32.12h0l.83.3h0l1.64.61,3.2,1,3.15.84,3.11.75h0c4.13.95,8.2,1.75,12.26,2.51,5.47,1,10.91,1.89,16.3,2.76q3.9.61,7.76,1.26l2.61.44c3,.5,6.09,1,9,1.54h0a72.76,72.76,0,0,0,7.48,1,72.42,72.42,0,0,0,7.8.18,68.91,68.91,0,0,0,7.8-.73c1.29-.2,2.57-.45,3.81-.72h0c1-.21,1.72-.4,2.5-.61l.92-.23q3.39-.93,6.5-2.11a50.51,50.51,0,0,0,5.83-2.7h0c.87-.47,1.69-.93,2.43-1.37h0a4.57,4.57,0,0,1,.78-.33,34,34,0,0,1,4.09-1c1.66-.31,3.47-.6,5.32-.85h0L151,18h0q12.38-1.69,24.54-3.86c4.05-.74,8.07-1.49,12.05-2.32h0a69.13,69.13,0,0,0,6.88-1.68L195,10h0l.66-.25h0c.24-.1.45-.19.74-.33h0l.42-.21.5-.29h0a5.78,5.78,0,0,0,1.19-.93h0a3.5,3.5,0,0,0,.31-.37,3,3,0,0,0,.28-.44h0a2.15,2.15,0,0,0,.19-.49v0h0A2.09,2.09,0,0,0,199.07,4.85Z"/></g></g></svg>