<svg xmlns="http://www.w3.org/2000/svg" preserveAspectRatio="none" viewBox="0 0 55 65.07">
    <defs>
        <style>
            .cls-1 {
                fill: none;
                stroke: #000;
            }
        </style>
    </defs>
    <g id="Ebene_2" data-name="Ebene 2">
        <g id="Ebene_1-2" data-name="Ebene 1">
            <path vector-effect="non-scaling-stroke" class="cls-1" d="M23.87,10a71.06,71.06,0,0,1-8.52-3.71c-.93-.46-1.86-.93-2.78-1.41C10.72,3.9,8.88,3,7,2.1H7A21.72,21.72,0,0,0,2.82.59h0A1.47,1.47,0,0,0,1.59.69a2,2,0,0,0-.9,1.06,3.29,3.29,0,0,0,.6,3.1h0A6.81,6.81,0,0,0,4.11,7.2l.14.07h0C5.83,8.19,7.4,9.12,9,10.05c6.32,3.75,12.59,7.48,19.43,9.64h0a26.44,26.44,0,0,1,8,4.57c1.14.89,2.27,1.84,3.41,2.8l.29.24c1.25,1,2.51,2.09,3.83,3.1l.39.29-.29.4a9,9,0,0,1-3.5,3,13.13,13.13,0,0,1-3.06.88l-.26,0a22.09,22.09,0,0,0-12.63,7.92h0c-4.29,5-9.32,8.91-14.3,12.74l-2.4,1.85h0l-1,.69-.57.4A7.8,7.8,0,0,0,5,59.75a3.51,3.51,0,0,0-.79,1.41,4.42,4.42,0,0,0,0,2.09h0a1.62,1.62,0,0,0,.58,1,1.91,1.91,0,0,0,1.2.32,8.23,8.23,0,0,0,4.23-1.72A88.74,88.74,0,0,0,26.72,48.36a18,18,0,0,1,9.81-6.07c5-1.19,10.06-2.44,14.73-5,2-1.14,3-2.29,3.2-3.35s-.37-2.21-2.12-3.53h0S46.72,25.82,44,23.43c-1.77-1.54-3.53-3.07-5.31-4.52-4.57-3.75-9.32-7.06-14.79-8.95" />
        </g>
    </g>
</svg>