<svg xmlns="http://www.w3.org/2000/svg" viewBox="0 0 1200 472"><defs><style>.cls-1{fill:#f2efff;}</style></defs><g id="Ebene_2" data-name="Ebene 2"><g id="Ebene_1-2" data-name="Ebene 1"><path class="cls-1" d="M1200,21.25c-5.34.26-11.87.47-18.09.52-17,.13-34.15.19-51.26.23-5.12,0-10.35-.12-15.43-.22-25.3-.49-49.61-1.16-73.27-2.07-27.68-1.06-57.92-1.61-88.5-1.93-34.93-.36-70.07-.61-104.9-1-17.85-.21-35.24-.66-52.85-1-8.67-.16-17.31-.34-26-.49-23.8-.41-46.35-1.23-71-1.37-1.22,0-2.6-.06-3.56-.12-10.69-.7-23.84-.93-36.69-1.23-3-.07-6-.3-7.82-.51-2.61-.31-3.75-.69-6.21-1Q633.49,9.61,622,8.23c-2.75-.33-6.93-.58-9.53-.92-7.75-1-19.13-1.6-31.76-2.16-8.45-.38-14.49-1.08-22.3-1.57-5.42-.34-11.65-.64-18.13-.81-38.29-1-78.36-1.4-117.78-2C411.17.57,400.22.25,389,0c-4-.07-8.3,0-12.47,0-14.5,0-29,0-43.45.09-7.38,0-14.79.21-21.85.4-13.67.36-26.78.89-40.71,1.15-22.16.41-41.61,1.26-61.6,2.05C204.84,3.87,200,4,195.5,4Q125.58,4,55.68,3.86c-15.31,0-29.62-.26-40.17-1.28-4-.38-9.3-.68-14.57-1L0,392.92c5.28,1.44,10.62,2.57,14.58,4.05,10.56,3.94,24.88,4.88,40.21,4.95q70,.34,139.93.49a91.65,91.65,0,0,0,13.42-1.07c20-3,39.46-6.34,61.64-7.94,13.94-1,27.07-3,40.75-4.43,7.06-.73,14.48-1.4,21.86-1.56,14.44-.31,29-.25,43.48-.33,4.18,0,8.52-.21,12.48.08,11.24.81,22.2,2,33.51,2.72,39.44,2.42,79.54,3.87,117.86,7.82a137.39,137.39,0,0,1,18.15,3.14c7.82,1.88,13.86,4.6,22.32,6.06,12.64,2.18,24,4.51,31.78,8.35,2.6,1.29,6.78,2.27,9.54,3.53q11.55,5.34,22.46,10.79c2.46,1.23,3.6,2.71,6.22,3.9a26,26,0,0,0,7.83,2c12.86,1.17,26,2.05,36.72,4.76a17.06,17.06,0,0,0,3.56.47c24.66.53,47.22,3.69,71,5.27,8.73.58,17.37,1.28,26,1.93,17.62,1.32,35,3.08,52.88,3.89,34.86,1.59,70,2.53,105,3.95,30.6,1.23,60.86,3.34,88.57,7.45,23.68,3.51,48,6.08,73.32,8,5.08.39,10.32.9,15.44.86,17.13-.15,34.27-.39,51.31-.9a119.94,119.94,0,0,0,18.1-2Z"/></g></g></svg>