<svg xmlns="http://www.w3.org/2000/svg" viewBox="0 0 588 416"><g id="Ebene_2" data-name="Ebene 2"><g id="Ebene_1-2" data-name="Ebene 1"><path d="M494.1,44.89c3.72-.61,6.69-1.41,9.66-1.47a9.34,9.34,0,0,1,5.31,1.78c3.66,2.56,7.06,5.93,10.78,8.27C522.2,55,525,54.91,527.5,56,535,59.46,542.62,62.77,550,66.89c2.15,1.21,4.22,4.55,5.2,7.64,1.21,3.82,1.47,8.36,1.73,12.64a52.87,52.87,0,0,0,2,11.72c1.8,6.42,2.11,13.79,2.51,20.81.09,1.61-1.85,4.28-3.24,5-4,2.22-5.74,8.91-5.23,12.76.79,6.09-1.65,11.05-6,11.81-.36,6.45-.71,12.67-3.25,18.78-2.69,6.49-.56,20.61,2.64,26.6-.14,1.91-3.22,2.56-1.09,5.49,2.73,3.73,7.09,4.54,9.59,2.23a53.81,53.81,0,0,1,9.33-7.14c3.47-2,8.73,3.66,9.08,9.38s.4,11.74.74,17.6c.5,8.74-4.85,15.55-11.34,12.78-1.33,6.77,1.7,11.07,4.52,15.27s6.28,5.77,10.46,3.69c1.11-.55,2.67.76,4.72,1.46.24-2.16.51-4.65.78-7.14l.69-.25c1,8.44,2.29,16.83,2.87,25.33.73,10.68,1,21.44,1.24,32.16a240.72,240.72,0,0,1-1.57,35.39c-1.62,13.2-1.65,26.77-2.85,40.09a44.47,44.47,0,0,1-3.63,14.69c-1.46,3-4.93,4-7.36,6.17-1.75,1.57-3.72,3.18-4.84,5.51-4.63,9.64-12.72,11.14-19,4.67-16.51-16.9-34.79-27.64-54.71-33.29-6.65-1.88-13.11-5.11-19.72-7.26a8.85,8.85,0,0,0-6.53.4c-19.1,9.6-38.11,19.55-57.21,29.16a21.26,21.26,0,0,1-8.91,2.26c-47,1.36-94-3.41-140.93-5.08-34.05-1.21-68.17-1.75-102.21,2-4.91.54-9.71,3-14.61,4.22-1.46.35-3.07-.8-4.62-.86a24.52,24.52,0,0,0-5.79.45c-2.76.54-5.5,1.37-8.24,2.11-.43.12-1,.23-1.23.65-3,6.4-7.65,3.5-11.55,3.6-7.24.2-14.49-.73-21.73-.75s-13.18-4.22-18.52-10.59c-.63-.75-1.19-3-.86-3.76,2.76-5.8-1.2-4.47-2.82-5.43a19.75,19.75,0,0,0-4.05-1.82,27.62,27.62,0,0,0-4.08-.84c-.67-.12-1.69.34-2-.15-3.66-6-7.55-11.41-9.58-19.52a87.72,87.72,0,0,1-2.42-19.21c-.15-4.56-.42-9.33-3.89-13s-5.79-9.41-8.37-14.49c-.61-1.21,0-3.56-.4-5.11-1.43-5.17-3.1-10.2-4.65-15.3a9,9,0,0,1-.66-3c.43-5.79,1.08-11.55,1.44-17.35.09-1.55-.24-3.83-1-4.67-3.4-3.84-4-9.46-5.28-14.74a9,9,0,0,0-1.2-3.19c-3-3.89-6.18-7.56-9.17-11.48a16.63,16.63,0,0,1-1.81-4.2c-.2-.53.05-1.46-.19-1.85-4.26-6.84-1.53-14.49-1.2-21.78.39-8.35,1.36-16.35-.34-25-1.46-7.4-2.29-14.71-5.39-21.39-2-4.36-2.84-9.84-4.21-14.81l.74-.53,3,4.78c3.66-7.54,9-11.21,14.83-14.94,4.35-2.81,7.94-9,7.75-17.37a77.54,77.54,0,0,1,6.78-34.41c.36-.79-.17-2.29.06-3.3,1.74-7.66,3.56-15.27,5.35-22.91l1.07.24c.19.89.37,1.77.55,2.67l.67.11c.36-6.87,1.12-13.75,1-20.59a215.06,215.06,0,0,0-1.91-22c-.9-7-2.3-13.84-3.48-20.76.25-.3.51-.59.77-.89,3.63,3.21,7.22,6.51,10.91,9.59a12.31,12.31,0,0,0,4.51,2.61c6.65,1.7,13.32,3.26,20,4.57,1.59.31,3.29-.75,4.94-.79,4.32-.08,8.63,0,12.94.11,6.41.13,12.52,3.7,19.18,2.23,3.09-.69,6.52,2.52,9.88,3.33a28.93,28.93,0,0,0,9.73.9c5.62-.61,11.89,3.8,14.7,11.12,2.55,6.67,8.49,10.88,13.8,9.1A61,61,0,0,0,170.91,44c7.18-4.46,11.92-3.88,17.8,3.53,3.57,4.5,7.21,5.81,12.22,4.11,6-2.05,12.19-4,18.74-1.28,5.17,2.13,10.61.25,15.59-3.2a23.81,23.81,0,0,1,4.58-2.33c4.5-1.86,8.33,0,12.18,3.59A27,27,0,0,0,272.85,56c9.41-.48,18.27-6.3,27.89-4.5,2.36.45,5-2.82,7.6-4,2.8-1.32,5.73-3.27,8.56-3.15,6.15.28,12-1.73,17.82-3.56,2.59-.81,4.72-.59,7.15,1.95,3.83,4,7.65,9.7,13,8a41.2,41.2,0,0,0,12.83-6.86c4.52-3.59,8.33-8.92,12.76-12.75,2.84-2.46,6.33-3.34,9.39-5.34,4.41-2.87,8.64-6.3,13.06-9.11a51.87,51.87,0,0,1,8.65-4.14c5.31-2.13,10.63-4.21,16-6a71.31,71.31,0,0,1,8.88-1.81c6-1.18,12.07-2.56,18.13-3.49C458,.7,461.41,1,464.8.79c2-.13,4-1,6-.76,5.2.56,10.56.58,15.52,2.53,7.85,3.09,8.78,5.85,8.85,17.56,0,1.72.49,3.46.41,5.15-.16,3.19-.6,6.34-.85,9.52C494.48,37.77,494.34,40.73,494.1,44.89Zm78.67,272.46c-.16,4.74,3.69,17.67,6.06,20.39a2.27,2.27,0,0,0,2.14.58c3.18-.76,5.14-5,4.49-9.92-1.08-8.34-2.83-16.4-6.15-23.54-.53-1.13-2.16-2.13-3-1.81a5.3,5.3,0,0,0-2.87,3.48A98.86,98.86,0,0,0,572.77,317.35Zm-9.12,14.15c-.3.27-1.25,1.07-2.18,1.92-4.65,4.25-5.56,12.72-1.92,17.84,2.4,3.38,4.35,3,6-1.4,2-5.34,3.78-10.77,5.46-15.59Zm-7.52,59.56,6.1-3c-.77-1.87-1.57-3.73-2.29-5.64-.25-.67-.15-1.68-.47-2.23-1.52-2.51-2.92-5.55-5.84-3.84a7.74,7.74,0,0,0-4,7.66C549.9,388.4,552.15,390.4,556.13,391.06Z"/></g></g></svg>